# xmcd
# 
# Track frame offsets:
#	150
#	12153
#	27716
#	45420
#	59783
#	70898
#	90833
#	105032
#	119505
#	136399
#	152190
#	164843
#	180099
#	193859
#	214462
#	227220
#
# Disc length: 3230 seconds
#
# Revision: 1
# Processed by: cddbd v1.4PL0 Copyright (c) Steve Scherf et al.
# Submitted via: Audio-CD-Archiv 2.10.441
#
DISCID=df0c9c10
DTITLE=Various Artist - Könige der Landstrasse CD 1 - 18 Räder und ein Dutzend Rosen
DYEAR=1900
DGENRE=country
TTITLE0=Sammy´s Saloon - Hallo, guten Morgen Deutschland
TTITLE1=Hans Zuber - Am Brenner ist die Hölle los
TTITLE2=Sammy´s Saloon - 18 Räder und ein Dutzend Rosen
TTITLE3=Little Ma´ Cissy - Einen Trucker legst du niemals an die Leine
TTITLE4=Gudrun Lange and Kactus - Bärenstarke Cowboys
TTITLE5=Nancy Wood - Lieder der Straße
TTITLE6=Oliver Freytag - Mr. Trucker ( Aus dem Kohlenpott )
TTITLE7=Gunter Gabriel - Deutschland ist...
TTITLE8=Andre´ Lamberz and Hill´s Angels - Heute Nacht, da brauch´ ich dich
TTITLE9=Oliver Freytag - Hey Driver
TTITLE10=Ralf Paulsen - Freie Fahrt für freie Europäer
TTITLE11=Western Union - Transit Cowboy
TTITLE12=Tennesse - Boß, ich schaff´ das doch
TTITLE13=Sammy´s Saloon - Der Truck ist mein Leben
TTITLE14=Hank Stone - Ein richtiger Mann ist immer unterwegs
TTITLE15=Western Starlights -  Ein Trucker steht am Himmelstor
EXTD=
EXTT0=
EXTT1=
EXTT2=
EXTT3=
EXTT4=
EXTT5=
EXTT6=
EXTT7=
EXTT8=
EXTT9=
EXTT10=
EXTT11=
EXTT12=
EXTT13=
EXTT14=
EXTT15=
PLAYORDER=
